<?xml version="1.0" encoding="UTF-8"?>
<svg width="12px" height="23px" viewBox="0 0 12 23" version="1.1" xmlns="http://www.w3.org/2000/svg" xmlns:xlink="http://www.w3.org/1999/xlink">
    <!-- Generator: Sketch 63.1 (92452) - https://sketch.com -->
    <title>btn_picker</title>
    <desc>Created with Sketch.</desc>
    <g id="手机" stroke="none" stroke-width="1" fill="none" fill-rule="evenodd">
        <g id="下级代理-操作弹窗" transform="translate(-613.000000, -248.000000)" fill="#333333">
            <g id="弹框／图文弹框-copy-4备份-2" transform="translate(55.000000, 74.000000)">
                <g id="编组-5" transform="translate(40.000000, 140.000000)">
                    <g id="编组-2">
                        <path d="M528.994691,47.3604262 C529.189627,47.3604262 529.380312,47.4174011 529.543294,47.5243435 C530.00505,47.8273288 530.133759,48.4472739 529.830774,48.9090296 L529.830774,48.9090296 L524.836031,56.5211189 C524.7609,56.6356194 524.663052,56.7334677 524.548552,56.8085982 C524.086796,57.1115835 523.466851,56.9828746 523.163865,56.5211189 L523.163865,56.5211189 L518.169123,48.9090296 C518.06218,48.7460473 518.005205,48.5553619 518.005205,48.3604262 C518.005205,47.8081415 518.452921,47.3604262 519.005205,47.3604262 L519.005205,47.3604262 Z M524.548552,34.1914018 C524.663052,34.2665323 524.7609,34.3643806 524.836031,34.4788811 L529.830774,42.0909704 C530.133759,42.5527261 530.00505,43.1726712 529.543294,43.4756565 C529.380312,43.5825989 529.189627,43.6395738 528.994691,43.6395738 L519.005205,43.6395738 C518.452921,43.6395738 518.005205,43.1918585 518.005205,42.6395738 C518.005205,42.4446381 518.06218,42.2539527 518.169123,42.0909704 L523.163865,34.4788811 C523.466851,34.0171254 524.086796,33.8884165 524.548552,34.1914018 Z" id="btn_picker"></path>
                    </g>
                </g>
            </g>
        </g>
    </g>
</svg>