<?xml version="1.0" encoding="UTF-8"?>
<svg width="32px" height="32px" viewBox="0 0 32 32" version="1.1" xmlns="http://www.w3.org/2000/svg" xmlns:xlink="http://www.w3.org/1999/xlink">
    <!-- Generator: Sketch 63.1 (92452) - https://sketch.com -->
    <title>btn_shaixuan</title>
    <desc>Created with Sketch.</desc>
    <g id="手机" stroke="none" stroke-width="1" fill="none" fill-rule="evenodd">
        <g id="代理人" transform="translate(-688.000000, -906.000000)" fill="#333333" fill-rule="nonzero">
            <path d="M716.844899,906.000328 C718.087015,906.000328 719.206255,906.726016 719.724471,907.86524 C720.242687,909.001796 720.015633,910.306433 719.163515,911.237555 L719.040639,911.36295 L709.38419,919.08139 C709.240567,919.206487 709.157836,919.3873 709.157137,919.577633 L709.157137,934.851767 C709.175835,936.612628 707.768104,937.999987 706.02647,937.999987 C705.49942,938.001507 704.980123,937.873215 704.514562,937.626457 L700.390203,935.329334 C699.374433,934.786869 698.743762,933.72641 698.752747,932.575988 L698.752747,919.494926 C698.748567,919.30069 698.657393,919.118565 698.504324,918.998683 L688.973422,911.36295 L688.869244,911.237555 C687.992554,910.344408 687.753962,909.005684 688.268221,907.86524 C688.751453,906.719957 689.882216,905.98216 691.126423,906.000328 L716.844899,906.000328 Z M716.844899,908.484209 L691.131765,908.484209 C690.89003,908.475095 690.6674,908.614864 690.57081,908.836381 C690.458855,909.047307 690.475387,909.303229 690.613549,909.498038 L700.104383,917.075076 C700.849652,917.675369 701.28506,918.563804 701.285061,919.51627 L701.285061,932.597332 C701.285061,932.824109 701.389238,933.050887 701.594922,933.157606 L705.719281,935.412041 C705.906266,935.516092 706.154689,935.516092 706.360373,935.412041 C706.555824,935.293052 706.674456,935.080381 706.672905,934.851767 L706.672905,919.598977 C706.672905,918.646511 707.086944,917.758077 707.832213,917.157783 L717.341745,909.500706 C717.486106,909.308775 717.510855,909.052318 717.405854,908.836381 C717.301666,908.621523 717.083921,908.484821 716.844899,908.484209 Z M718.730778,929.347743 C719.41461,929.347743 719.97294,929.908017 719.97294,930.588349 C719.975763,930.918493 719.845906,931.235986 719.612417,931.469693 C719.378929,931.703399 719.061329,931.83378 718.730778,931.831624 L711.662738,931.831624 C710.976914,931.828692 710.422085,931.273345 710.420622,930.588349 C710.420622,929.905349 710.981578,929.347743 711.662738,929.347743 L718.730778,929.347743 Z M718.730778,924.689465 C719.41461,924.689465 719.972894,925.249739 719.972894,925.93274 C719.978744,926.263526 719.849758,926.582485 719.615536,926.816423 C719.381314,927.05036 719.061966,927.17919 718.730778,927.173346 L711.662738,927.173346 C710.977952,927.170424 710.423549,926.616694 710.420622,925.93274 C710.420622,925.249739 710.981578,924.689465 711.662738,924.689465 L718.730778,924.689465 Z M718.730778,920.012512 C719.41461,920.012512 719.972894,920.572786 719.972894,921.255787 C719.978744,921.586573 719.849758,921.905532 719.615536,922.13947 C719.381314,922.373407 719.061966,922.502236 718.730778,922.496393 L711.662738,922.496393 C710.977952,922.49347 710.423549,921.93974 710.420622,921.255787 C710.420622,920.572786 710.981578,920.012512 711.662738,920.012512 L718.730778,920.012512 Z" id="btn_shaixuan"></path>
        </g>
    </g>
</svg>