<?xml version="1.0" encoding="UTF-8"?>
<svg width="60px" height="60px" viewBox="0 0 60 60" version="1.1" xmlns="http://www.w3.org/2000/svg" xmlns:xlink="http://www.w3.org/1999/xlink">
    <title>icon_huazhuan</title>
    <defs>
        <linearGradient x1="50%" y1="0%" x2="50%" y2="100%" id="linearGradient-1">
            <stop stop-color="#39C575" offset="0%"></stop>
            <stop stop-color="#0DB255" offset="100%"></stop>
        </linearGradient>
    </defs>
    <g id="SaaS-V1.1.0" stroke="none" stroke-width="1" fill="none" fill-rule="evenodd">
        <g id="代理人" transform="translate(-90.000000, -1210.000000)" fill="url(#linearGradient-1)" fill-rule="nonzero">
            <g id="编组-4备份" transform="translate(90.000000, 1210.000000)">
                <path d="M55.3953398,30.8893738 L55.3953398,36.4333838 C55.3953398,43.887515 49.3441524,49.9302319 41.8794329,49.930232 L23.5882231,49.930232 L23.5882231,53.6191799 C23.5882231,56.5065969 20.1915111,58.0598938 18.00186,56.1751845 L6.17054436,45.9776365 C5.4273535,45.3372082 5,44.4048108 5,43.4237495 C5,42.4426883 5.4273535,41.5102909 6.17054436,40.8698625 L18.00186,30.6723145 C20.1915111,28.7844288 23.5882232,30.3377257 23.5882231,33.2272604 L23.5882231,36.9140906 L40.0487237,36.9140906 C43.2864823,36.914901 46.2398405,35.0649908 47.6521492,32.1514937 L48.9756811,29.419724 C50.5374486,26.192424 55.3953398,27.3052496 55.3953398,30.8893738 Z M42.8207287,3.82685392 L54.6520444,14.0233431 C55.3959293,14.6635852 55.8237671,15.5962938 55.8237671,16.5777595 C55.8237671,17.5592251 55.3959293,18.4919337 54.6520444,19.1321759 L42.8207287,29.328665 C40.6321365,31.2144332 37.2364833,29.6632539 37.2364832,26.7747781 L37.2364832,23.0847713 L20.7749239,23.0847713 C17.5360683,23.0840512 14.5818138,24.9348301 13.1693806,27.8494859 L11.8500841,30.5801967 C10.2861989,33.8064379 5.42830769,32.69573 5.42830769,29.110547 L5.42830769,23.5665369 C5.42830769,16.1124057 11.4784363,10.0696888 18.942097,10.0696888 L37.2364832,10.0696888 L37.2364832,6.38179975 C37.2364832,3.49226508 40.6321365,1.93896815 42.8207287,3.82685392 Z" id="形状结合"></path>
            </g>
        </g>
    </g>
</svg>