<?xml version="1.0" encoding="UTF-8"?>
<svg width="60px" height="60px" viewBox="0 0 60 60" version="1.1" xmlns="http://www.w3.org/2000/svg" xmlns:xlink="http://www.w3.org/1999/xlink">
    <title>icon_daili</title>
    <defs>
        <linearGradient x1="50%" y1="0%" x2="50%" y2="100%" id="linearGradient-1">
            <stop stop-color="#3FA6FF" offset="0%"></stop>
            <stop stop-color="#088CFF" offset="100%"></stop>
        </linearGradient>
    </defs>
    <g id="SaaS-V1.1.0" stroke="none" stroke-width="1" fill="none" fill-rule="evenodd">
        <g id="代理人" transform="translate(-448.000000, -1060.000000)" fill="url(#linearGradient-1)" fill-rule="nonzero">
            <g id="编组-5" transform="translate(448.000000, 1060.000000)">
                <path d="M53.154474,37.776486 L49.2234868,37.776486 L49.2234868,35.7886273 C49.2234868,32.5965938 46.6987388,30 43.5067053,30 L31.9907737,30 L31.9907737,22.2234959 L35.8514613,22.2234959 C37.9843984,22.2234959 39.7672688,20.5539757 39.7672688,18.4227805 L39.7672688,6.84550793 C39.7672688,4.714375 37.9843984,3 35.8514613,3 L24.2741887,3 C22.1429936,3 20.419349,4.714375 20.419349,6.84550793 L20.419349,18.4227805 C20.419349,20.5539757 22.1429936,22.2234959 24.2741887,22.2234959 L28.1336321,22.2234959 L28.1336321,30 L16.4932144,30 C13.3011809,30 10.7764951,32.5965938 10.7764951,35.7886273 L10.7764951,37.776486 L6.84550793,37.776486 C4.714375,37.776486 3,39.4442643 3,41.5772636 L3,53.154474 C3,55.2875355 4.714375,57 6.84550793,57 L18.4227805,57 C20.5557798,57 22.2234959,55.2875355 22.2234959,53.154474 L22.2234959,41.5772636 C22.2234959,39.4442643 20.5557798,37.776486 18.4227805,37.776486 L14.5092127,37.776486 L14.5092127,35.7886273 C14.5092127,34.7258603 15.4286433,33.8571325 16.4932144,33.8571325 L43.5067053,33.8571325 C44.5695344,33.8571325 45.3663452,34.7258603 45.3663452,35.7886273 L45.3663452,37.776486 L41.5772636,37.776486 C39.4442643,37.776486 37.776486,39.4442643 37.776486,41.5772636 L37.776486,53.154474 C37.776486,55.2875355 39.4442643,57 41.5772636,57 L53.154474,57 C54.1753242,57.0031177 55.1552671,56.5989741 55.8771206,55.8771206 C56.5989741,55.1552671 57.0031177,54.1753242 57,53.154474 L57,41.5772636 C57,39.4442643 55.2875355,37.776486 53.154474,37.776486 Z" id="路径"></path>
            </g>
        </g>
    </g>
</svg>