<?xml version="1.0" encoding="UTF-8"?>
<svg width="60px" height="60px" viewBox="0 0 60 60" version="1.1" xmlns="http://www.w3.org/2000/svg" xmlns:xlink="http://www.w3.org/1999/xlink">
    <!-- Generator: Sketch 63.1 (92452) - https://sketch.com -->
    <title>icon_fenfa</title>
    <desc>Created with Sketch.</desc>
    <defs>
        <linearGradient x1="50%" y1="0%" x2="50%" y2="100%" id="linearGradient-1">
            <stop stop-color="#FFA33A" offset="0%"></stop>
            <stop stop-color="#FF843A" offset="100%"></stop>
        </linearGradient>
    </defs>
    <g id="手机" stroke="none" stroke-width="1" fill="none" fill-rule="evenodd">
        <g id="代理人" transform="translate(-448.000000, -1060.000000)" fill="url(#linearGradient-1)" fill-rule="nonzero">
            <g id="编组-5" transform="translate(448.000000, 1060.000000)">
                <path d="M27.2609387,0.631655609 C28.7844595,-0.21055187 30.6339183,-0.21055187 32.1574391,0.631655609 L54.8061823,13.1473632 C56.4190898,14.0375315 57.4208067,15.7340699 57.4208067,17.5763159 L57.4208067,42.4231408 C57.4194936,44.2644454 56.4181402,45.9597231 54.8061823,46.8496646 L32.1574391,59.3690155 C30.634551,60.2103282 28.7862557,60.2103282 27.2633675,59.3690155 L4.61462435,46.8520935 C3.00190533,45.9617312 2,44.2653155 2,42.4231408 L2,17.5775303 C2.00175478,15.7366608 3.00304684,14.0419519 4.61462435,13.1522209 L27.2597243,0.630441199 L27.2597243,0.631655609 L27.2609387,0.631655609 Z M11.7614262,20.0792145 C11.4357644,20.666293 11.3568343,21.358749 11.5420216,22.004057 C11.7272088,22.649365 12.1613224,23.1945903 12.7487413,23.5196375 L27.1807877,31.4934524 L27.1807877,47.3949347 C27.1807877,48.7920028 28.3133352,49.9245503 29.7104033,49.9245503 C31.1074715,49.9245503 32.240019,48.7920028 32.240019,47.3949347 L32.240019,31.4934524 L46.6720653,23.5147799 C47.8416628,22.8146667 48.2461838,21.3137053 47.5868051,20.1206686 C46.9274264,18.9276318 45.4413017,18.4716101 44.2262439,19.0894705 L29.7104033,27.109433 L15.198206,19.0894705 C13.9754904,18.4143372 12.4369852,18.8579486 11.7614262,20.0804289 L11.7614262,20.0792145 Z" id="形状"></path>
            </g>
        </g>
    </g>
</svg>