<?xml version="1.0" encoding="UTF-8"?>
<svg width="60px" height="60px" viewBox="0 0 60 60" version="1.1" xmlns="http://www.w3.org/2000/svg" xmlns:xlink="http://www.w3.org/1999/xlink">
    <!-- Generator: Sketch 63.1 (92452) - https://sketch.com -->
    <title>icon_guest</title>
    <desc>Created with Sketch.</desc>
    <defs>
        <linearGradient x1="50%" y1="0%" x2="50%" y2="100%" id="linearGradient-1">
            <stop stop-color="#3F87FF" offset="0%"></stop>
            <stop stop-color="#146DFE" offset="100%"></stop>
        </linearGradient>
    </defs>
    <g id="手机" stroke="none" stroke-width="1" fill="none" fill-rule="evenodd">
        <g id="代理人" transform="translate(-90.000000, -1060.000000)" fill="url(#linearGradient-1)" fill-rule="nonzero">
            <g id="编组-4" transform="translate(90.000000, 1060.000000)">
                <path d="M45.3676041,46.5335395 C42.7751864,41.6199694 38.012352,39.0576399 32.6466339,36.9174292 C31.8327202,36.5858697 31.5011607,35.6513675 31.8930145,34.8977481 L31.8930145,34.86766 L31.9834559,34.6867772 C34.3649026,31.3708873 36.444819,27.1807894 36.7462903,21.8150123 C37.3190859,15.6655276 34.9978745,11.3247531 31.7723669,8.06909843 C31.3202189,7.6169504 31.1996304,6.92362528 31.5010427,6.3508297 C33.0384286,3.51723496 35.4198754,1.28658292 39.7607089,1.0151997 C46.3924887,0.713728347 50.00985,4.93403233 50.6127927,10.3600447 C51.5172068,16.3889409 49.4070253,21.2121286 46.9954314,24.2265471 C46.6939601,24.8294898 46.0910764,25.1309022 45.789723,25.7337269 C45.5486049,26.2160811 45.4882516,27.3314071 45.6690755,28.0548794 C45.7293697,28.3563507 45.8801054,28.5974098 46.1212825,28.8084987 C46.9653433,29.531912 48.683612,30.0444723 49.7386438,30.5870617 C51.2458235,31.1900045 52.45165,31.7927702 53.6574174,32.3957129 C56.0690112,33.6014803 58.7819585,35.4101904 59.6863135,37.8217253 C60.2892562,39.3289051 59.9877849,42.3434416 59.0833708,43.5491501 C57.124043,46.3525977 51.4870006,46.8048047 46.8447547,47.3473352 C46.241812,47.3775413 45.6690755,47.0761289 45.3676631,46.5335395 L45.3676041,46.5335395 Z M0,52.5624356 L0,50.4523131 C0,49.8493704 0.301471355,49.2465457 0.602942709,48.643662 C1.778563,46.2622153 4.16000971,44.7549765 6.23998507,43.2779438 C6.30022034,43.2477967 6.36057361,43.1874434 6.42086788,43.1572963 C8.19937189,42.2831474 9.97793488,41.3787923 12.0579102,40.5046434 C12.5703525,40.2634663 13.2938838,39.9921421 13.8665614,39.750965 C14.0775913,39.6605236 14.2584151,39.539994 14.3790037,39.3591112 C15.2532116,38.3040795 16.1877138,36.1336627 15.343653,34.4756882 C15.0421817,33.8727455 14.7407103,33.5712742 14.1680327,32.9985966 L14.1077975,32.9383613 C11.3947323,29.9238838 9.01334454,24.7993427 9.61616926,18.8004757 C10.219112,12.7716386 14.1378856,8.55133461 20.7697244,8.55133461 C27.3714161,8.55133461 31.2902488,12.7414915 32.224633,18.7402404 C32.224633,18.8005347 32.224633,18.8307408 32.2547801,18.8909761 C32.5261633,22.4781903 31.6518374,25.763933 30.7476003,27.8740555 C29.8733924,29.9540899 28.9690373,31.4311225 27.793417,32.9082142 C27.7331818,32.9685085 27.7029756,33.0288027 27.6728285,33.089097 C27.3713571,33.5713922 26.889062,33.8728635 26.5875906,34.3551587 C26.5273553,34.4456591 26.4971492,34.5360415 26.4670021,34.65663 C25.9545598,36.435193 26.5272373,38.7562865 27.1301211,39.6305534 C27.4315924,40.20329 28.5771246,40.2334371 29.4814206,40.5047024 C29.5416559,40.5347905 29.571862,40.5347905 29.6321563,40.5649376 C33.2193704,42.0721764 36.7764375,43.8506804 39.4592375,46.2321271 C39.4893847,46.2622743 39.5195318,46.2924214 39.5497379,46.2924214 C40.3335045,47.0761879 41.3583891,48.1312197 41.78039,49.5781642 C41.8708904,49.9097237 41.9010375,50.2714893 41.9010375,50.6030488 L41.9010375,52.9542894 C41.9010375,53.1050251 41.8709494,53.2557607 41.8408022,53.3763493 C40.8158586,56.5114154 36.686055,57.4157704 32.8577228,58.2899194 C26.225884,59.4956868 16.8810979,59.4956868 9.94778775,58.2899194 C6.63189783,57.6869767 3.01453656,56.7826806 1.20582642,54.6725581 C0.602883713,54.3710867 0.301412358,53.768203 0,52.5624356 L0,52.5624356 Z" id="形状"></path>
            </g>
        </g>
    </g>
</svg>