<?xml version="1.0" encoding="UTF-8"?>
<svg width="14px" height="20px" viewBox="0 0 14 20" version="1.1" xmlns="http://www.w3.org/2000/svg" xmlns:xlink="http://www.w3.org/1999/xlink">
    <!-- Generator: Sketch 63.1 (92452) - https://sketch.com -->
    <title>icon_tel</title>
    <desc>Created with Sketch.</desc>
    <g id="页面-1" stroke="none" stroke-width="1" fill="none" fill-rule="evenodd">
        <g id="登录-默认" transform="translate(-879.000000, -338.000000)" fill="#CCCCCC" fill-rule="nonzero">
            <g id="编组-10" transform="translate(820.000000, 184.000000)">
                <g id="Group" transform="translate(50.000000, 144.000000)">
                    <g id="icon_tel" transform="translate(9.000000, 10.000000)">
                        <path d="M12.4043527,0 L1.60244414,0 C0.715687176,0 0,0.748266625 0,1.66738891 L0,18.3326111 C0,19.2514576 0.715568282,20 1.60234506,20 L12.4043329,20 C13.2844317,20 14,19.2514576 14,18.3326111 L14,1.6674086 C14,0.748286322 13.2842336,0 12.4043527,0 L12.4043527,0 Z M6.99995046,18.5539513 C6.11065708,18.5539513 5.39041227,17.8018634 5.39041227,16.8712575 C5.39041227,15.9515246 6.11095431,15.1990427 6.99995046,15.1990427 C7.88904569,15.1990427 8.6092905,15.9515246 8.6092905,16.8712575 C8.60919142,17.8018634 7.88864937,18.5539513 6.99995046,18.5539513 Z M12.0030035,13.2494091 C12.0030035,13.7610306 11.6076387,14.1678223 11.1225083,14.1678223 L2.87768982,14.1678223 C2.39277742,14.1678223 1.99761078,13.7610306 1.99761078,13.2494091 L1.99761078,3.00098487 C1.99761078,2.48985581 2.39277742,2.08205957 2.87768982,2.08205957 L11.1225083,2.08205957 C11.6079359,2.08205957 12.0030035,2.4899543 12.0030035,3.00098487 L12.0030035,13.2494091 L12.0030035,13.2494091 Z"></path>
                    </g>
                </g>
            </g>
        </g>
    </g>
</svg>