<?xml version="1.0" encoding="UTF-8"?>
<svg width="16px" height="20px" viewBox="0 0 16 20" version="1.1" xmlns="http://www.w3.org/2000/svg" xmlns:xlink="http://www.w3.org/1999/xlink">
    <!-- Generator: Sketch 63.1 (92452) - https://sketch.com -->
    <title>icon_code</title>
    <desc>Created with Sketch.</desc>
    <g id="页面-1" stroke="none" stroke-width="1" fill="none" fill-rule="evenodd">
        <g id="登录-默认" transform="translate(-878.000000, -394.000000)" fill="#CCCCCC" fill-rule="nonzero">
            <g id="编组-10" transform="translate(820.000000, 184.000000)">
                <g id="Group-2" transform="translate(50.000000, 200.000000)">
                    <path d="M23.3765942,12.4730573 C23.200854,12.4794101 23.029159,12.481679 22.8601607,12.481679 C18.4185629,12.481679 16.461599,10.4923426 16.4449688,10.4737379 L16.0022473,10 L15.5559301,10.4741917 C15.538401,10.4950653 13.620091,12.4821328 9.14163716,12.4821328 C8.97263891,12.4821328 8.80094387,12.4798639 8.62340579,12.4735111 L8,12.4526376 L8,21.4740783 C8,23.8364152 8.8067869,27.2819058 15.7820102,29.9178673 L16,30 L16.2179898,29.9178673 C23.1932131,27.2814521 24,23.8364152 24,21.4740783 L24,12.4526376 L23.3765942,12.4730573 L23.3765942,12.4730573 Z M15.3145682,23.8078276 L11.295466,20.1045944 L12.3629417,19.2061259 L14.5001405,20.8451503 C14.5001405,20.8451503 17.4499691,17.6710153 20.2991179,16.188996 L20.7067813,16.6650028 C20.7067813,16.6650028 17.1452329,19.7338627 15.3145682,23.8078276 L15.3145682,23.8078276 Z" id="icon_code"></path>
                </g>
            </g>
        </g>
    </g>
</svg>