<?xml version="1.0" encoding="UTF-8"?>
<svg width="16px" height="20px" viewBox="0 0 16 20" version="1.1" xmlns="http://www.w3.org/2000/svg" xmlns:xlink="http://www.w3.org/1999/xlink">
    <!-- Generator: Sketch 63.1 (92452) - https://sketch.com -->
    <title>icon_password</title>
    <desc>Created with Sketch.</desc>
    <g id="web" stroke="none" stroke-width="1" fill="none" fill-rule="evenodd">
        <g id="登录-默认" transform="translate(-878.000000, -394.000000)" fill="#CCCCCC" fill-rule="nonzero">
            <g id="编组-10" transform="translate(820.000000, 184.000000)">
                <g id="Group-2" transform="translate(50.000000, 200.000000)">
                    <path d="M21.5381605,30 L10.4618975,30 C9.10351845,30 8,28.8340048 8,27.3983776 L8,19.5996019 C8,18.1660053 9.10354076,17.0000547 10.4618975,17.0000547 L11.1005887,17.0000547 C11.0351666,16.6757779 11.0000234,16.3418172 11.0000234,16 L11.0000234,15 C11.0000234,12.238253 13.238321,10 16.0000402,10 C18.7607775,10 21.0001015,12.238253 21.0001015,15 L21.0001015,15.9999799 C21.0001015,16.3417948 20.9649137,16.6757556 20.8994916,17.0000324 L21.5381605,17.0000324 C22.8955578,17.0000324 24.000058,18.165983 24.000058,19.5995796 L24.000058,27.3983776 C24.000058,28.8340048 22.8955578,30 21.5381605,30 L21.5381605,30 Z M15.0000324,23.7266172 L15.0000324,26.0000803 C15.0000324,26.5508131 15.4483256,27.0000658 16.0000402,27.0000658 C16.5517548,27.0000658 17.0000257,26.5507908 17.0000257,26.0000803 L17.0000257,23.7266172 C17.6064298,23.3828611 18.0194905,22.7422286 18.0194905,22.0000112 C18.0194905,20.8945001 17.1152507,20.0000112 16.0000179,20.0000112 C14.8838032,20.0000112 13.9794965,20.8945001 13.9794965,22.0000112 C13.9794965,22.7422063 14.3935613,23.3828387 15.0000324,23.7266172 L15.0000324,23.7266172 Z M18.9999944,14.9999944 C18.9999944,13.3427532 17.6573483,11.999971 16.0000402,11.999971 C14.3428436,11.999971 12.9999944,13.3427532 12.9999944,14.9999944 L12.9999944,17.0000324 L18.9999944,17.0000324 L18.9999944,14.9999944 Z" id="icon_password"></path>
                </g>
            </g>
        </g>
    </g>
</svg>